<svg width="20" height="20" viewBox="0 0 20 20" fill="none" xmlns="http://www.w3.org/2000/svg"><path d="M15.7723 8.06916C15.6238 8.06916 15.4554 8.07906 15.2772 8.09886L14.5446 5.13846H14.6931C14.6931 5.13846 15.6535 5.13846 15.9604 5.13846C16.0693 5.13846 16.2475 5.14837 16.3267 5.17807C16.7228 5.34638 16.9307 5.81173 16.7624 6.21767C16.6634 6.44539 16.4455 6.63351 16.198 6.68302C15.9109 6.76223 15.7327 7.02955 15.7822 7.30678C15.8317 7.4949 15.9406 7.63351 16.099 7.69292C16.1584 7.72262 16.2178 7.73252 16.297 7.73252C16.3267 7.73252 16.3762 7.73252 16.4158 7.73252C17.0198 7.60381 17.5149 7.18797 17.7426 6.62361C18.1188 5.68302 17.6634 4.60381 16.7228 4.21767C16.5149 4.12856 16.3168 4.08896 16.0891 4.07906H13.8713C13.6535 4.07906 13.4653 4.19787 13.3861 4.38599C13.3267 4.5444 13.3366 4.64341 13.3762 4.77213L13.5248 5.38599H8.42574L8.20792 4.5246H9.58416C9.87129 4.5246 10.1089 4.28698 10.1089 3.99985C10.1089 3.71272 9.87129 3.4751 9.58416 3.4751H6.13861C5.85148 3.4751 5.61386 3.70282 5.61386 3.99985C5.61386 4.29688 5.85148 4.5246 6.13861 4.5246H7.10891L7.65346 6.68302L6.26733 8.59391C5.65346 8.24738 4.95049 8.06916 4.22772 8.06916C1.90099 8.06916 0 9.96025 0 12.2969C0 14.6335 1.90099 16.5246 4.22772 16.5246C6.35644 16.5246 8.17822 14.9008 8.42574 12.8018H9.55445C9.62376 12.8018 9.70297 12.782 9.77228 12.7523C9.88119 12.6929 9.92079 12.6533 9.9901 12.5543L10.0198 12.5246L13.9505 7.09886L14.2673 8.34639C12.6337 8.96025 11.5347 10.5345 11.5347 12.2969C11.5347 14.6335 13.4356 16.5246 15.7723 16.5246C18.1089 16.5246 20 14.6335 20 12.2969C20 9.96025 18.099 8.06916 15.7723 8.06916ZM6.48515 10.0692C6.94059 10.5246 7.23762 11.1088 7.35643 11.7424H5.27723L6.48515 10.0692ZM4.22772 15.4751C2.47525 15.4751 1.05941 14.0494 1.05941 12.2969C1.05941 10.5444 2.47525 9.11866 4.22772 9.11866C4.72277 9.11866 5.20792 9.23747 5.64356 9.4553L3.82178 11.9602C3.73267 12.0593 3.70297 12.2078 3.73267 12.3662C3.76238 12.5246 3.86139 12.6632 4 12.7325C4.07921 12.782 4.15842 12.8018 4.24752 12.8018H7.36634C7.12871 14.3266 5.79208 15.4751 4.22772 15.4751ZM8.42574 11.7424C8.29703 10.7622 7.84158 9.87114 7.11881 9.20777L7.9802 8.01965L8.91089 11.7424H8.42574ZM9.81188 11.0098L8.68317 6.44539H13.1188L9.81188 11.0098ZM15.7723 15.4751C14.0198 15.4751 12.5941 14.0494 12.5941 12.2969C12.5941 11.0296 13.3663 9.87114 14.5149 9.37609L15.2574 12.3563C15.3168 12.584 15.5347 12.7523 15.7822 12.7523C15.8119 12.7523 15.8515 12.7523 15.8911 12.7424C16.0297 12.7127 16.1485 12.6236 16.2277 12.5048C16.297 12.3761 16.3168 12.2276 16.2871 12.1088L15.5347 9.12856C15.604 9.12856 15.6832 9.11866 15.7723 9.11866C17.5248 9.11866 18.9406 10.5444 18.9406 12.2969C18.9406 14.0494 17.5248 15.4751 15.7723 15.4751Z" fill="#8021ac"></path></svg>