<svg width="20" height="20" viewBox="0 0 20 20" fill="none" xmlns="http://www.w3.org/2000/svg"><path d="M6.70671 11.9113C5.65566 11.9113 4.79479 11.0605 4.79479 9.99939C4.79479 8.93833 5.64565 8.08748 6.70671 8.08748C7.76777 8.08748 8.61862 8.93833 8.61862 9.99939C8.61862 11.0605 7.76777 11.9113 6.70671 11.9113ZM6.70671 9.17857C6.25626 9.17857 5.88589 9.54894 5.88589 9.99939C5.88589 10.4498 6.25626 10.8202 6.70671 10.8202C7.15716 10.8202 7.52753 10.4498 7.52753 9.99939C7.52753 9.54894 7.15716 9.17857 6.70671 9.17857Z" fill="#7d2120"></path><path d="M15.5556 11.9113C14.5045 11.9113 13.6436 11.0605 13.6436 9.99939C13.6436 8.93833 14.4945 8.08748 15.5556 8.08748C16.6166 8.08748 17.4575 8.93833 17.4575 9.99939C17.4575 11.0605 16.6066 11.9113 15.5556 11.9113ZM15.5556 9.17857C15.1051 9.17857 14.7347 9.54894 14.7347 9.99939C14.7347 10.4498 15.1051 10.8202 15.5556 10.8202C16.006 10.8202 16.3764 10.4498 16.3764 9.99939C16.3764 9.54894 16.006 9.17857 15.5556 9.17857Z" fill="#7d2120"></path><path d="M11.1311 11.9113C10.0801 11.9113 9.22923 11.0605 9.22923 9.99939C9.22923 8.93833 10.0801 8.08748 11.1311 8.08748C12.1822 8.08748 13.043 8.93833 13.043 9.99939C13.043 11.0605 12.1922 11.9113 11.1311 11.9113ZM11.1311 9.17857C10.6807 9.17857 10.3103 9.54894 10.3103 9.99939C10.3103 10.4498 10.6807 10.8202 11.1311 10.8202C11.5816 10.8202 11.952 10.4498 11.952 9.99939C11.952 9.54894 11.5816 9.17857 11.1311 9.17857Z" fill="#7d2120"></path><path d="M19.4595 4.92432H2.8028C2.68268 4.92432 2.58258 4.95435 2.48248 5.02442L0.25025 6.606C0.1001 6.71611 0 6.9063 0 7.08648L0.02002 14.4939C0.02002 14.7942 0.31031 15.0745 0.610611 15.0745H19.4595C19.5996 15.0845 19.7397 15.0244 19.8398 14.9243C19.9399 14.8242 20 14.6841 20 14.5439V5.46486C20 5.16456 19.7598 4.92432 19.4595 4.92432ZM2.25225 13.9934H1.11111L1.08108 7.34674L2.25225 6.51591V13.9934ZM18.9189 13.9934H3.34334V6.0054H18.9189V13.9934Z" fill="#7d2120"></path></svg>