<svg width="20" height="20" viewBox="0 0 20 20" fill="none" xmlns="http://www.w3.org/2000/svg"><mask id="Mask-Availability207870811be6cfd14dc484b50d6b3e6616" maskUnits="userSpaceOnUse" x="0" y="0" width="20" height="20" style="mask-type: alpha;"><rect width="20" height="20" fill="#414e6c"></rect></mask><g mask="url(#Mask-Availability207870811be6cfd14dc484b50d6b3e6616)"><path d="M6.75421 11.4521C6.57505 11.4521 6.42053 11.3886 6.29067 11.2618C6.16095 11.1349 6.09609 10.9818 6.09609 10.8027C6.09609 10.6235 6.15949 10.469 6.2863 10.3391C6.41324 10.2093 6.5663 10.1443 6.74546 10.1443C6.92463 10.1443 7.07914 10.2078 7.209 10.3348C7.33873 10.4616 7.40359 10.6146 7.40359 10.7939C7.40359 10.9731 7.34018 11.1276 7.21338 11.2575C7.08643 11.3872 6.93338 11.4521 6.75421 11.4521ZM10.0042 11.4521C9.82505 11.4521 9.67053 11.3886 9.54067 11.2618C9.41095 11.1349 9.34609 10.9818 9.34609 10.8027C9.34609 10.6235 9.40949 10.469 9.5363 10.3391C9.66324 10.2093 9.8163 10.1443 9.99546 10.1443C10.1746 10.1443 10.3291 10.2078 10.459 10.3348C10.5887 10.4616 10.6536 10.6146 10.6536 10.7939C10.6536 10.9731 10.5902 11.1276 10.4634 11.2575C10.3364 11.3872 10.1834 11.4521 10.0042 11.4521ZM13.2542 11.4521C13.075 11.4521 12.9205 11.3886 12.7907 11.2618C12.6609 11.1349 12.5961 10.9818 12.5961 10.8027C12.5961 10.6235 12.6595 10.469 12.7863 10.3391C12.9132 10.2093 13.0663 10.1443 13.2455 10.1443C13.4246 10.1443 13.5791 10.2078 13.709 10.3348C13.8387 10.4616 13.9036 10.6146 13.9036 10.7939C13.9036 10.9731 13.8402 11.1276 13.7134 11.2575C13.5864 11.3872 13.4334 11.4521 13.2542 11.4521ZM4.7563 17.5835C4.38116 17.5835 4.06407 17.4516 3.80505 17.1877C3.54602 16.9238 3.4165 16.6091 3.4165 16.2437V5.75663C3.4165 5.39122 3.54602 5.07656 3.80505 4.81268C4.06407 4.54879 4.38116 4.41684 4.7563 4.41684H6.57671V2.8783C6.57671 2.71927 6.62949 2.58656 6.73505 2.48018C6.8406 2.37393 6.97227 2.3208 7.13005 2.3208C7.28796 2.3208 7.42109 2.37393 7.52942 2.48018C7.63789 2.58656 7.69213 2.71927 7.69213 2.8783V4.41684H12.3396V2.86247C12.3396 2.70872 12.391 2.57997 12.4938 2.47622C12.5967 2.37261 12.7244 2.3208 12.8769 2.3208C13.0294 2.3208 13.1585 2.37261 13.2642 2.47622C13.37 2.57997 13.423 2.70872 13.423 2.86247V4.41684H15.2434C15.6185 4.41684 15.9356 4.54879 16.1946 4.81268C16.4537 5.07656 16.5832 5.39122 16.5832 5.75663V16.2437C16.5832 16.6091 16.4537 16.9238 16.1946 17.1877C15.9356 17.4516 15.6185 17.5835 15.2434 17.5835H4.7563ZM4.7563 16.5002H15.2434C15.3075 16.5002 15.3663 16.4734 15.4196 16.42C15.4731 16.3666 15.4998 16.3079 15.4998 16.2437V9.25663H4.49984V16.2437C4.49984 16.3079 4.52657 16.3666 4.58005 16.42C4.63338 16.4734 4.69213 16.5002 4.7563 16.5002ZM4.49984 8.1733H15.4998V5.75663C15.4998 5.69247 15.4731 5.63372 15.4196 5.58038C15.3663 5.52691 15.3075 5.50018 15.2434 5.50018H4.7563C4.69213 5.50018 4.63338 5.52691 4.58005 5.58038C4.52657 5.63372 4.49984 5.69247 4.49984 5.75663V8.1733Z" fill="#414e6c"></path></g></svg>