<svg width="20" height="20" viewBox="0 0 20 20" fill="none" xmlns="http://www.w3.org/2000/svg"><path d="M16.4304 8.7588C16.1488 7.99739 15.742 7.309 15.2414 6.69361L15.8254 6.08866C15.9506 5.96349 16.0132 5.83833 16.0132 5.70274C16.0132 5.55671 15.9506 5.43155 15.8254 5.30639C15.7003 5.18123 15.5647 5.11864 15.4291 5.10821C15.2831 5.10821 15.1579 5.16037 15.0432 5.2751L14.4278 5.89048C13.802 5.3794 13.1032 4.98305 12.3522 4.691C11.7681 4.47197 11.1736 4.33638 10.5582 4.29465V3.1369H11.8724C12.0288 3.1369 12.1644 3.07432 12.2792 2.97001C12.3835 2.85528 12.4356 2.71969 12.4356 2.56323C12.4356 2.40678 12.3835 2.27119 12.2792 2.16688C12.1644 2.05215 12.0288 2 11.8724 2H8.11749C7.96104 2 7.82545 2.05215 7.72115 2.16688C7.60641 2.28162 7.55426 2.41721 7.55426 2.57366C7.55426 2.73012 7.60641 2.86571 7.72115 2.97001C7.82545 3.07432 7.96104 3.1369 8.11749 3.1369H9.43171V4.28422C8.69116 4.33638 7.9819 4.51369 7.31437 4.79531C6.49038 5.16037 5.76026 5.65059 5.13444 6.26597C4.51906 6.89179 4.02884 7.6219 3.67421 8.44589C3.30915 9.28031 3.13184 10.1773 3.13184 11.1265C3.13184 12.0756 3.30915 12.9726 3.67421 13.807C4.02884 14.6415 4.51906 15.3611 5.13444 15.987C5.76026 16.6128 6.49038 17.0926 7.31437 17.4576C8.14879 17.8123 9.04579 18 9.99494 18C10.9441 18 11.8515 17.8123 12.6755 17.4576C13.5099 17.0926 14.2296 16.6128 14.8554 15.987C15.4812 15.3611 15.9715 14.6415 16.3261 13.807C16.6807 12.9726 16.8685 12.0861 16.8685 11.1265C16.8685 10.3129 16.7224 9.52021 16.4304 8.7588ZM14.0627 15.1943C12.9467 16.3103 11.5908 16.8631 9.99494 16.8631C8.39911 16.8631 7.05361 16.3103 5.93757 15.1943C4.82154 14.0782 4.2583 12.7223 4.2583 11.1265C4.2583 9.53064 4.82154 8.18514 5.93757 7.0691C7.05361 5.95306 8.39911 5.38983 9.99494 5.38983C11.5908 5.38983 12.9467 5.95306 14.0627 7.0691C15.1788 8.18514 15.7316 9.53064 15.7316 11.1265C15.7316 12.7223 15.1788 14.0782 14.0627 15.1943Z" fill="#a42ddb"></path><path d="M14.3131 11.4394C14.3131 11.6063 14.2609 11.7314 14.1462 11.8462C14.0419 11.9505 13.9063 12.0026 13.7498 12.0026H9.99494C9.83849 12.0026 9.71332 11.9505 9.60902 11.8462H9.59859C9.48386 11.7314 9.43171 11.5958 9.43171 11.4394V7.68448C9.43171 7.52803 9.48386 7.39244 9.59859 7.28814C9.71332 7.1734 9.83849 7.12125 10.0054 7.12125C10.1618 7.12125 10.2974 7.1734 10.4017 7.28814C10.506 7.39244 10.5582 7.52803 10.5582 7.68448V10.8761H13.7498C13.9063 10.8761 14.0419 10.9283 14.1462 11.043C14.2609 11.1473 14.3131 11.2829 14.3131 11.4394Z" fill="#a42ddb"></path></svg>