<svg width="20" height="20" viewBox="0 0 20 20" fill="none" xmlns="http://www.w3.org/2000/svg"><path d="M12.1463 18.7747C12.352 18.7747 12.5363 18.7141 12.699 18.593C12.8619 18.4718 12.9814 18.3175 13.0574 18.1303L14.7528 14.0455H17.8907C18.0442 14.0455 18.1728 13.994 18.2765 13.8909C18.3804 13.7879 18.4324 13.6602 18.4324 13.508C18.4324 13.3557 18.3804 13.2266 18.2765 13.1209C18.1728 13.0151 18.0442 12.9622 17.8907 12.9622H14.4853C14.3539 12.9622 14.2276 12.9998 14.1063 13.0751C13.9851 13.1505 13.8993 13.2539 13.849 13.3853L12.1472 17.523L8.4932 8.84843C8.4175 8.66732 8.29847 8.51815 8.13611 8.40093C7.97361 8.28371 7.78952 8.2251 7.58382 8.2251C7.37813 8.2251 7.19389 8.28565 7.03111 8.40676C6.8682 8.52788 6.74875 8.68204 6.67278 8.86926L4.96132 12.9622H1.8234C1.66993 12.9622 1.54132 13.0137 1.43757 13.1168C1.33368 13.2198 1.28174 13.3475 1.28174 13.4997C1.28174 13.652 1.33368 13.7811 1.43757 13.8868C1.54132 13.9926 1.66993 14.0455 1.8234 14.0455H5.23695C5.37014 14.0455 5.49208 14.0079 5.60278 13.9326C5.71361 13.8572 5.7941 13.7538 5.84424 13.6224L7.58299 9.47656L11.2369 18.1511C11.3126 18.3324 11.4317 18.4816 11.594 18.5988C11.7565 18.7161 11.9406 18.7747 12.1463 18.7747Z" fill="#9d1c57"></path><path d="M12.4327 11.7747C12.6384 11.7747 12.8226 11.7141 12.9854 11.593C13.1483 11.4718 13.2678 11.3175 13.3437 11.1303L15.0391 7.04551H18.1771C18.3305 7.04551 18.4591 6.99399 18.5629 6.89093C18.6668 6.78788 18.7187 6.66024 18.7187 6.50801C18.7187 6.35565 18.6668 6.22663 18.5629 6.12093C18.4591 6.0151 18.3305 5.96218 18.1771 5.96218H14.7716C14.6403 5.96218 14.5139 5.99982 14.3927 6.0751C14.2714 6.15051 14.1857 6.25392 14.1354 6.38531L12.4335 10.523L8.77956 1.84843C8.70387 1.66732 8.58484 1.51815 8.42248 1.40093C8.25998 1.28371 8.07588 1.2251 7.87019 1.2251C7.6645 1.2251 7.48026 1.28565 7.31748 1.40676C7.15456 1.52788 7.03512 1.68204 6.95915 1.86926L5.24769 5.96218H2.10977C1.9563 5.96218 1.82769 6.01371 1.72394 6.11677C1.62005 6.21982 1.56811 6.34746 1.56811 6.49968C1.56811 6.65204 1.62005 6.78107 1.72394 6.88676C1.82769 6.9926 1.9563 7.04551 2.10977 7.04551H5.52331C5.65651 7.04551 5.77845 7.00788 5.88915 6.9326C5.99998 6.85718 6.08047 6.75378 6.13061 6.62239L7.86936 2.47656L11.5233 11.1511C11.599 11.3324 11.718 11.4816 11.8804 11.5988C12.0429 11.7161 12.227 11.7747 12.4327 11.7747Z" fill="#9d1c57"></path></svg>