<svg width="20" height="20" viewBox="0 0 20 20" fill="none" xmlns="http://www.w3.org/2000/svg"><path d="M18.911 5.02206H17.9485V4.12756C17.9485 3.4664 17.4137 2.93164 16.7526 2.93164H3.26689C2.60574 2.93164 2.07098 3.4664 2.07098 4.12756V5.02206H1.10841C0.495868 5.02206 0 5.51793 0 6.12075V14.8325C0 15.4158 0.456976 15.8825 1.03063 15.9214V16.5437C1.03063 16.8354 1.26398 17.0687 1.55566 17.0687C1.84735 17.0687 2.0807 16.8354 2.0807 16.5437V15.9409H17.9193V16.5437C17.9193 16.8354 18.1526 17.0687 18.4443 17.0687C18.736 17.0687 18.9694 16.8354 18.9694 16.5437V15.9214C19.543 15.8825 20 15.4158 20 14.8325V6.12075C20 5.50821 19.5041 5.02206 18.9013 5.02206H18.911ZM9.47983 12.0031H3.26689C3.18911 12.0031 3.13077 11.9448 3.12105 11.8573L3.16966 9.82517L9.47983 9.87379V11.9934V12.0031ZM16.7428 12.0031H10.5396L10.5785 9.8349L16.8887 9.88351V11.8573C16.8887 11.935 16.8206 12.0031 16.7428 12.0031ZM3.12105 4.12756C3.12105 4.04977 3.18911 3.98171 3.26689 3.98171H16.7526C16.8303 3.98171 16.8984 4.04977 16.8984 4.12756V8.78482C16.8984 8.78482 16.8692 8.7751 16.8498 8.7751H10.5882C10.3743 8.7751 10.0146 8.7751 10.0146 8.7751C9.98371 8.7751 9.65484 8.7751 9.44093 8.7751H3.16966C3.16966 8.7751 3.1405 8.7751 3.12105 8.78482V4.12756ZM2.07098 6.12075V11.9448C2.07098 12.0323 2.10015 12.1198 2.13904 12.1878C2.28488 12.6837 2.73213 13.0435 3.26689 13.0435H16.7526C17.297 13.0435 17.7346 12.674 17.8804 12.1878C17.9193 12.1101 17.9485 12.0323 17.9485 11.9448L17.9971 6.09158L18.9597 6.12075L18.911 14.8908L1.05007 14.8422L1.09869 6.07214L2.06125 6.12075H2.07098Z" fill="#6f7b96"></path></svg>