<svg width="20" height="20" viewBox="0 0 20 20" fill="none" xmlns="http://www.w3.org/2000/svg"><mask id="Mask-Trophy2095522365c67a507d2ab5d8427aedb56a" maskUnits="userSpaceOnUse" x="0" y="0" width="20" height="20" style="mask-type: alpha;"><rect width="20" height="20" fill="#1840ec"></rect></mask><g mask="url(#Mask-Trophy2095522365c67a507d2ab5d8427aedb56a)"><path d="M9.45817 15.4998V12.644C8.83206 12.5809 8.27143 12.3641 7.7763 11.9934C7.28116 11.6227 6.92136 11.1441 6.69692 10.5575C5.77678 10.4495 5.00005 10.0644 4.36671 9.40213C3.73324 8.73977 3.4165 7.95289 3.4165 7.0415V6.7563C3.4165 6.38782 3.54768 6.07241 3.81005 5.81005C4.07241 5.54768 4.38782 5.4165 4.7563 5.4165H6.27234V4.7563C6.27234 4.38782 6.40352 4.07241 6.66588 3.81005C6.92824 3.54768 7.24366 3.4165 7.61213 3.4165H12.3875C12.756 3.4165 13.0714 3.54768 13.3338 3.81005C13.5962 4.07241 13.7273 4.38782 13.7273 4.7563V5.4165H15.2434C15.6119 5.4165 15.9273 5.54768 16.1896 5.81005C16.452 6.07241 16.5832 6.38782 16.5832 6.7563V6.99984C16.5832 7.92192 16.2664 8.7181 15.633 9.38838C14.9996 10.0585 14.2229 10.4482 13.3028 10.5575C13.0783 11.1441 12.7185 11.6227 12.2234 11.9934C11.7282 12.3641 11.1676 12.5809 10.5415 12.644V15.4998H12.8813C13.0348 15.4998 13.1634 15.5514 13.2671 15.6544C13.371 15.7575 13.423 15.8851 13.423 16.0373C13.423 16.1897 13.371 16.3187 13.2671 16.4244C13.1634 16.5303 13.0348 16.5832 12.8813 16.5832H7.11838C6.96491 16.5832 6.8363 16.5316 6.73255 16.4286C6.62866 16.3255 6.57671 16.1979 6.57671 16.0457C6.57671 15.8933 6.62866 15.7643 6.73255 15.6586C6.8363 15.5528 6.96491 15.4998 7.11838 15.4998H9.45817ZM6.27234 9.29796V6.49984H4.7563C4.68143 6.49984 4.61998 6.52387 4.57192 6.57192C4.52387 6.61998 4.49984 6.68143 4.49984 6.7563V6.99984C4.49984 7.534 4.66463 8.01532 4.99421 8.4438C5.3238 8.87213 5.74984 9.15685 6.27234 9.29796ZM10.0017 11.6121C10.7323 11.6121 11.3526 11.3566 11.8628 10.8455C12.3729 10.3344 12.628 9.7138 12.628 8.9838V4.7563C12.628 4.68143 12.6039 4.61998 12.5559 4.57192C12.5078 4.52387 12.4464 4.49984 12.3717 4.49984H7.62796C7.55324 4.49984 7.49185 4.52387 7.4438 4.57192C7.39574 4.61998 7.37171 4.68143 7.37171 4.7563V8.9838C7.37171 9.7138 7.62741 10.3344 8.1388 10.8455C8.65018 11.3566 9.27116 11.6121 10.0017 11.6121ZM13.7273 9.29796C14.2498 9.15685 14.6759 8.87213 15.0055 8.4438C15.335 8.01532 15.4998 7.534 15.4998 6.99984V6.7563C15.4998 6.68143 15.4758 6.61998 15.4278 6.57192C15.3797 6.52387 15.3182 6.49984 15.2434 6.49984H13.7273V9.29796Z" fill="#1840ec"></path></g></svg>