<svg width="20" height="20" viewBox="0 0 20 20" fill="none" xmlns="http://www.w3.org/2000/svg"><mask id="Mask-Goal202fa7798e15556d86672dbcd5fea09ebc" maskUnits="userSpaceOnUse" x="0" y="0" width="20" height="20" style="mask-type: alpha;"><rect width="20" height="20" fill="#3177ff"></rect></mask><g mask="url(#Mask-Goal202fa7798e15556d86672dbcd5fea09ebc)"><path d="M8.93734 11.1639L7.54317 9.79033C7.42775 9.67505 7.30352 9.61602 7.17046 9.61324C7.03755 9.6106 6.91067 9.66963 6.78984 9.79033C6.66914 9.91116 6.6088 10.0402 6.6088 10.1774C6.6088 10.3146 6.66914 10.4437 6.78984 10.5645L8.47255 12.2472C8.60421 12.3839 8.75789 12.4522 8.93359 12.4522C9.10914 12.4522 9.26532 12.3839 9.40213 12.2472L13.2259 8.42345C13.3412 8.30803 13.4002 8.18033 13.403 8.04033C13.4056 7.90046 13.3466 7.77012 13.2259 7.64928C13.105 7.52859 12.9795 7.46824 12.8492 7.46824C12.7189 7.46824 12.5934 7.52859 12.4725 7.64928L8.93734 11.1639ZM4.7563 16.5837C4.38116 16.5837 4.06407 16.4541 3.80505 16.1951C3.54602 15.9361 3.4165 15.619 3.4165 15.2439V4.75678C3.4165 4.38164 3.54602 4.06456 3.80505 3.80553C4.06407 3.54651 4.38116 3.41699 4.7563 3.41699H15.2434C15.6185 3.41699 15.9356 3.54651 16.1946 3.80553C16.4537 4.06456 16.5832 4.38164 16.5832 4.75678V15.2439C16.5832 15.619 16.4537 15.9361 16.1946 16.1951C15.9356 16.4541 15.6185 16.5837 15.2434 16.5837H4.7563ZM4.7563 15.5003H15.2434C15.3075 15.5003 15.3663 15.4736 15.4196 15.4201C15.4731 15.3668 15.4998 15.308 15.4998 15.2439V4.75678C15.4998 4.69262 15.4731 4.63387 15.4196 4.58053C15.3663 4.52706 15.3075 4.50033 15.2434 4.50033H4.7563C4.69213 4.50033 4.63338 4.52706 4.58005 4.58053C4.52657 4.63387 4.49984 4.69262 4.49984 4.75678V15.2439C4.49984 15.308 4.52657 15.3668 4.58005 15.4201C4.63338 15.4736 4.69213 15.5003 4.7563 15.5003Z" fill="#3177ff"></path></g></svg>