<svg width="20" height="20" viewBox="0 0 20 20" fill="none" xmlns="http://www.w3.org/2000/svg"><path d="M7.66228 14.4925C7.67305 14.6326 7.61919 14.945 7.51146 15.085C7.42527 15.1928 7.25291 15.2466 7.059 15.3005L6.99436 15.3221C6.99436 15.3221 6.92972 15.3436 6.88663 15.3544C6.74658 15.4082 6.58499 15.4729 6.44494 15.4729C6.3803 15.4729 6.31567 15.4621 6.27257 15.4298C6.07866 15.3005 6.05712 14.9235 6.05712 14.708C6.05712 14.6757 6.04634 14.6326 6.04634 14.5787C6.0248 14.3848 6.00325 14.1694 6.12175 14.0508C6.22948 13.9216 6.44494 13.9108 6.69272 13.9108H6.76813C6.76813 13.9108 6.86508 13.9 6.91895 13.8785C7.0159 13.8569 7.11286 13.8354 7.20982 13.8354C7.27445 13.8354 7.32832 13.8462 7.37141 13.8785C7.57609 13.9862 7.6515 14.374 7.66228 14.4925Z" fill="#5a3c01"></path><path d="M6.52035 16.4855V16.6363C6.52035 16.8734 6.52035 17.0888 6.3803 17.1858C6.32644 17.2289 6.25103 17.2504 6.16484 17.2504C5.99248 17.2504 5.78779 17.175 5.68006 17.1319C5.64775 17.1211 5.60465 17.1104 5.56156 17.0996C5.3892 17.0457 5.19528 16.9919 5.11987 16.8518C5.05524 16.7225 5.11987 16.5394 5.19528 16.3455L5.21683 16.2808C5.21683 16.2808 5.23838 16.2054 5.23838 16.1516C5.25992 16.0223 5.28147 15.8607 5.3892 15.7853C5.45383 15.7314 5.56156 15.6991 5.69084 15.6991C5.82011 15.6991 5.94939 15.7206 6.0248 15.753C6.11098 15.7853 6.40185 15.9146 6.48803 16.0762C6.5419 16.1731 6.53112 16.3239 6.52035 16.4855Z" fill="#5a3c01"></path><path d="M3.57935 14.6218C3.53626 14.7188 3.42853 14.848 3.26693 15.0204C3.24539 15.0527 3.21307 15.0958 3.16998 15.1497C3.05148 15.3113 2.9222 15.4944 2.74984 15.516H2.70674L2.69597 15.5267C2.46974 15.5267 2.11423 15.3005 2.01728 15.1281C1.90955 14.945 1.888 14.5572 1.888 14.4171C1.888 14.3202 1.89878 13.8138 2.10346 13.6307C2.20042 13.5553 2.35124 13.523 2.5667 13.523C2.70674 13.523 2.83602 13.5338 2.93297 13.5661H2.97607C3.24539 13.6415 3.50394 13.7277 3.60089 13.8893C3.70862 14.0832 3.64399 14.471 3.57935 14.6218Z" fill="#5a3c01"></path><path d="M9.40749 16.0007C9.39671 16.1947 9.37517 16.3886 9.26744 16.4855C9.17048 16.5609 9.01966 16.5717 8.86884 16.5717H8.77189C8.77189 16.5717 8.6857 16.5825 8.63184 16.5933C8.54566 16.604 8.4487 16.6256 8.37329 16.6256C8.28711 16.6256 8.22247 16.604 8.1686 16.5609C7.98546 16.4317 7.98546 16.0331 8.01778 15.9038C8.03933 15.7745 8.14706 15.516 8.24401 15.4082C8.3302 15.3005 8.58875 15.1066 8.79343 15.1066H8.82575C9.01966 15.1281 9.25667 15.3867 9.3213 15.5267C9.37517 15.6345 9.41826 15.8607 9.40749 16.0007Z" fill="#5a3c01"></path><path d="M19.7818 13.1136H19.7172C19.6956 12.8766 19.6633 12.6611 19.6202 12.4565H19.6525C19.7064 12.4241 19.7602 12.3811 19.7926 12.3164C19.8249 12.2625 19.8249 12.1979 19.8033 12.1333L19.7064 11.7778C19.6633 11.6808 19.5663 11.6054 19.4694 11.6054C19.4371 11.6054 19.4155 11.6162 19.394 11.6162L19.3293 11.6377C19.2216 11.4007 19.1139 11.2176 19.0061 11.056H19.0277C19.1354 10.959 19.157 10.8082 19.0816 10.7005L18.8553 10.3988C18.8015 10.3342 18.7368 10.3019 18.6614 10.3019C18.6075 10.3019 18.5537 10.3234 18.5106 10.3557L18.4675 10.3881C18.3167 10.2372 18.1443 10.0864 17.9612 9.94637V9.92483C18.0366 9.8171 18.0043 9.66628 17.8858 9.59087L17.5841 9.39696C17.5841 9.39696 17.4979 9.35387 17.4441 9.35387C17.3579 9.35387 17.2825 9.39696 17.2394 9.47237L17.2071 9.51546C17.0562 9.44005 16.8839 9.37541 16.6684 9.31077L17.3687 5.59412L18.1228 5.93886C18.1874 5.9604 18.252 5.97117 18.3167 5.97117C18.5106 5.97117 18.6722 5.86345 18.7584 5.69108C18.8122 5.57258 18.8122 5.4433 18.7691 5.3248C18.726 5.19553 18.6291 5.09857 18.5214 5.05548L17.3794 4.53838C17.2825 4.48451 17.1855 4.46297 17.0886 4.46297C16.9808 4.46297 16.8839 4.48451 16.7977 4.53838C16.5715 4.65688 16.5068 4.88311 16.4853 4.98007L16.2698 6.16509L11.422 3.97819L11.4759 3.655L12.7902 4.24751C12.8548 4.27983 12.9195 4.2906 12.9841 4.2906C13.178 4.2906 13.3504 4.18287 13.4258 4.01051C13.4796 3.892 13.4904 3.75196 13.4473 3.63345C13.3935 3.51495 13.3073 3.418 13.1888 3.36413L9.97845 1.92056C9.91381 1.88825 9.8384 1.8667 9.77377 1.8667C9.57985 1.8667 9.41826 1.9852 9.34285 2.15757C9.28899 2.27607 9.27821 2.40534 9.3213 2.53462C9.37517 2.65312 9.46135 2.75008 9.57985 2.80394L10.5602 3.23486L10.2585 4.86157L8.20092 6.04658C8.13628 5.94963 8.06087 5.85267 8.00701 5.78804L8.02856 5.76649C8.12551 5.66953 8.12551 5.51871 8.03933 5.42176L7.77001 5.16321C7.77001 5.16321 7.6515 5.07702 7.58687 5.07702C7.533 5.07702 7.46837 5.10934 7.42527 5.15243L7.38218 5.18475C7.18827 5.03393 7.00513 4.91543 6.83276 4.8077V4.78616C6.83276 4.78616 6.87586 4.66765 6.85431 4.60302C6.83276 4.53838 6.78967 4.49529 6.73581 4.46297L6.40185 4.30137C6.40185 4.30137 6.32644 4.27983 6.29412 4.27983C6.19716 4.27983 6.10021 4.33369 6.06789 4.41988L6.03557 4.46297C5.82011 4.38756 5.58311 4.34447 5.3892 4.31215V4.27983C5.41074 4.13978 5.31379 4.02128 5.17374 3.99973L4.79669 3.96741H4.78591C4.64587 3.96741 4.53814 4.06437 4.52736 4.19365V4.25828C4.31191 4.25828 4.10722 4.27983 3.87022 4.32292V4.27983C3.82713 4.18287 3.73017 4.09669 3.62244 4.09669C3.60089 4.09669 3.57935 4.10746 3.5578 4.10746L3.19152 4.19365C3.19152 4.19365 3.08379 4.25828 3.0407 4.31215C3.00838 4.36601 2.99761 4.44142 3.00838 4.49529L3.02993 4.55992C2.82525 4.63533 2.62056 4.73229 2.43742 4.85079V4.82925C2.37278 4.75384 2.2866 4.71075 2.21119 4.71075C2.15733 4.71075 2.11423 4.71075 2.07114 4.76461L1.7695 4.95852C1.7695 4.95852 1.67254 5.05548 1.66177 5.12012C1.651 5.18475 1.66177 5.24939 1.70486 5.30325L1.73718 5.34635C1.56482 5.49717 1.40322 5.64799 1.2524 5.82035H1.24163C1.24163 5.82035 1.15545 5.76649 1.10158 5.76649C1.02617 5.76649 0.950761 5.79881 0.896896 5.86345L0.681438 6.16509C0.681438 6.16509 0.627573 6.27282 0.638346 6.34823C0.649119 6.41286 0.681438 6.4775 0.735303 6.50982L0.778394 6.54214C0.670665 6.72528 0.584482 6.92996 0.509072 7.14542H0.422888C0.315159 7.14542 0.218203 7.21006 0.175112 7.31779L0.0781556 7.67329C0.035064 7.80257 0.110474 7.94262 0.239749 7.98571H0.304387V8.01803C0.304387 8.01803 0.272068 8.12575 0.261295 8.17962C0.261295 8.29812 0.261295 8.41662 0.261295 8.53512V8.6644H0.228976C0.164339 8.6644 0.0997014 8.69672 0.0566098 8.75058C0.0135182 8.79367 -0.0080276 8.85831 0.0027453 8.93372L0.0242911 9.3C0.035064 9.4185 0.142793 9.52623 0.272068 9.52623H0.347478C0.412116 9.77401 0.46598 9.96792 0.530617 10.1511H0.509072C0.444434 10.1942 0.39057 10.248 0.369024 10.3127C0.347478 10.3773 0.347478 10.4419 0.379797 10.4958L0.530617 10.8298C0.573709 10.9159 0.659892 10.9806 0.756848 10.9806C0.789167 10.9806 0.821486 10.9698 0.853804 10.9483L0.907669 10.9267C1.0154 11.1098 1.14467 11.293 1.29549 11.4654L1.27395 11.4977C1.27395 11.4977 1.20931 11.6054 1.20931 11.67C1.20931 11.7347 1.23086 11.7885 1.27395 11.8424L1.5325 12.101C1.5325 12.101 1.651 12.1764 1.71564 12.1764C1.78027 12.1764 1.83414 12.1548 1.888 12.1117L1.92032 12.0686C2.10346 12.2195 2.2866 12.338 2.46974 12.4457H2.45897C2.42665 12.5211 2.42665 12.5965 2.44819 12.6611C2.46974 12.7258 2.5236 12.7689 2.58824 12.8012L2.91143 12.952C2.91143 12.952 2.98684 12.9843 3.01916 12.9843C3.11611 12.9843 3.2023 12.9305 3.24539 12.8443L3.26693 12.7904C3.49317 12.8658 3.7194 12.9197 3.91331 12.952V12.9736C3.90254 13.1136 3.98872 13.2321 4.12877 13.2537L4.50582 13.2967H4.52736C4.65664 13.2967 4.76437 13.189 4.77514 13.0705V13.0059C4.9906 12.9951 5.21683 12.9843 5.44306 12.9412V12.9628C5.47538 13.0813 5.57233 13.1567 5.69084 13.1567C5.71238 13.1567 5.72316 13.1567 5.7447 13.1459L6.11098 13.0597C6.24025 13.0274 6.32644 12.8874 6.29412 12.7581L6.27257 12.7042C6.47726 12.6181 6.68194 12.5319 6.87586 12.4134L6.8974 12.4349C6.94049 12.5103 7.00513 12.5426 7.09131 12.5426C7.14518 12.5426 7.18827 12.5426 7.24213 12.4996L7.533 12.3056C7.59764 12.2625 7.62996 12.2087 7.6515 12.1333C7.6515 12.0686 7.6515 12.004 7.60841 11.9501L7.57609 11.907C7.77001 11.7347 7.92083 11.5839 8.0501 11.433H8.06087C8.06087 11.433 8.15783 11.4977 8.2117 11.4977C8.28711 11.4977 8.36252 11.4546 8.40561 11.4007L8.63184 11.0991C8.63184 11.0991 8.67493 11.0021 8.67493 10.959L9.42903 11.3038C9.49367 11.3253 9.55831 11.3469 9.63372 11.3469C9.75222 11.3361 9.79531 11.3145 9.93536 11.2283L12.8225 9.59087C12.8225 9.59087 12.801 9.62319 12.7902 9.65551C12.7686 9.72014 12.7686 9.78478 12.801 9.84942L12.8225 9.89251C12.6286 10.0326 12.4562 10.1726 12.3054 10.3127H12.2946C12.2408 10.2588 12.1761 10.2372 12.1223 10.2372C12.0468 10.2372 11.993 10.2588 11.9391 10.3019L11.6913 10.582C11.6052 10.6789 11.6052 10.8405 11.6913 10.9375L11.7237 10.959C11.6052 11.1422 11.4974 11.3361 11.4005 11.5408H11.3682C11.3682 11.5408 11.3035 11.5084 11.282 11.5084C11.1742 11.5084 11.0773 11.5731 11.045 11.67L10.9049 12.004C10.8726 12.0579 10.8726 12.1333 10.9049 12.1979C10.9372 12.2625 10.9803 12.3056 11.045 12.3272L11.0881 12.3487C11.0881 12.3487 11.0881 12.3811 11.0665 12.4026C11.0557 12.4457 11.045 12.4888 11.0342 12.5319C11.0019 12.6611 10.9911 12.7904 10.9803 12.9305C10.9803 12.952 10.9696 12.9736 10.9696 13.0059H10.9372C10.7864 12.9951 10.6787 13.1028 10.6787 13.2429L10.6571 13.6092C10.6571 13.6092 10.6787 13.7277 10.7218 13.7708C10.7649 13.8246 10.8295 13.8569 10.8941 13.8677H10.9588C10.9803 14.0939 11.0127 14.3094 11.0665 14.5141H11.0342C10.9696 14.5464 10.9157 14.5895 10.8941 14.6541C10.8618 14.708 10.8511 14.7834 10.8726 14.8373L10.9803 15.1928C11.0126 15.2897 11.1096 15.3651 11.2173 15.3651C11.2497 15.3651 11.2712 15.3651 11.2927 15.3651L11.3466 15.3436C11.4651 15.5806 11.5621 15.7637 11.6698 15.9253L11.6483 15.9469C11.6483 15.9469 11.5728 16.0331 11.5621 16.1085C11.5621 16.1731 11.5621 16.2377 11.5944 16.2916L11.8314 16.5825C11.8314 16.5825 11.9499 16.6794 12.0253 16.6794C12.0792 16.6794 12.133 16.6579 12.1761 16.6363L12.2192 16.5933C12.3808 16.7656 12.5532 16.9057 12.7255 17.0349V17.0565C12.7255 17.0565 12.6609 17.175 12.6824 17.2396C12.6932 17.3043 12.7363 17.3581 12.7902 17.3904L13.0918 17.5951C13.0918 17.5951 13.1888 17.6275 13.2319 17.6275C13.3181 17.6275 13.3935 17.5844 13.4366 17.5197L13.4689 17.4659C13.6843 17.5736 13.9106 17.6382 14.0937 17.7029V17.7352C14.0722 17.789 14.0829 17.8537 14.1152 17.9075C14.1476 17.9722 14.2122 18.0153 14.2768 18.0261L14.6431 18.1015C14.6431 18.1015 14.6754 18.1122 14.697 18.1122C14.8047 18.1122 14.9017 18.0368 14.934 17.9183V17.8537C15.0633 17.8645 15.1925 17.8752 15.3218 17.8752C15.408 17.8752 15.5157 17.8752 15.6127 17.8752V17.9075C15.6342 18.0368 15.7312 18.1338 15.8605 18.1338C15.8605 18.1338 15.882 18.1338 15.8928 18.123L16.2591 18.0799C16.3991 18.0584 16.4853 17.9399 16.4745 17.7998V17.7352C16.6792 17.6813 16.8839 17.6167 17.0993 17.5305V17.552C17.1532 17.6382 17.2394 17.6813 17.3256 17.6813C17.3687 17.6813 17.4118 17.6813 17.4441 17.6598L17.7673 17.4874C17.8319 17.4551 17.875 17.412 17.8965 17.3474C17.9181 17.2827 17.9073 17.2181 17.875 17.1534L17.8534 17.0996C18.015 16.9919 18.2089 16.8518 18.3705 16.701H18.3813C18.3813 16.701 18.4998 16.7764 18.5537 16.7764C18.6291 16.7764 18.6937 16.7441 18.7368 16.6902L18.9846 16.4209C18.9846 16.4209 19.06 16.3132 19.0492 16.2485C19.0492 16.1839 19.0277 16.1192 18.9738 16.0762L18.9415 16.0331C19.06 15.8715 19.1785 15.6776 19.2755 15.4621H19.3078C19.3078 15.4621 19.3616 15.4944 19.4047 15.4944C19.5017 15.4944 19.5879 15.4298 19.631 15.3436L19.771 14.9989C19.771 14.9989 19.7926 14.8804 19.771 14.8157C19.7495 14.7511 19.6956 14.6972 19.631 14.6757L19.5771 14.6541C19.5771 14.6541 19.5987 14.611 19.5987 14.5895C19.6202 14.5572 19.631 14.5141 19.6417 14.471C19.6633 14.3417 19.6741 14.2124 19.6956 14.0832V14.0078H19.7279C19.8787 14.0078 19.9972 13.9 19.9972 13.7708V13.4045C20.0188 13.2644 19.9111 13.1567 19.771 13.1459L19.7818 13.1136ZM5.87398 11.5946C6.12175 11.4869 6.35876 11.3576 6.57421 11.196C6.35876 11.3576 6.12175 11.4977 5.87398 11.5946ZM4.65664 11.7885C4.54891 11.7885 4.44118 11.7885 4.32268 11.767C3.48239 11.6808 2.72829 11.2714 2.18964 10.6143C1.651 9.95715 1.414 9.13841 1.50018 8.30889C1.66177 6.68219 3.01916 5.46485 4.64587 5.46485C4.75359 5.46485 4.86132 5.47562 4.97983 5.48639C5.82011 5.5618 6.58499 5.98195 7.13441 6.64987L4.45195 8.19039C4.33345 8.24426 4.24727 8.35199 4.21495 8.49203C4.17186 8.63208 4.20418 8.79367 4.29036 8.91218C4.34422 8.97681 4.40886 9.01991 4.48427 9.05222L7.31754 10.3342C6.74658 11.2283 5.73393 11.7885 4.65664 11.7885ZM7.71614 9.45082L5.7447 8.55667L7.60841 7.49015C7.79155 7.95339 7.85619 8.43817 7.8131 8.9445C7.79155 9.11686 7.75923 9.27845 7.71614 9.45082ZM9.29976 10.1618L9.06275 10.0541C9.06275 10.0541 9.11662 9.97869 9.12739 9.9356L9.23512 9.59087C9.26744 9.45082 9.19203 9.32155 9.06275 9.27845L8.99812 9.25691C8.99812 9.25691 8.99812 9.20304 9.01966 9.1815C9.03044 9.14918 9.04121 9.11686 9.04121 9.07377C9.05198 8.95527 9.05198 8.83677 9.04121 8.72904V8.59976H9.07353C9.21358 8.58899 9.31053 8.47049 9.31053 8.33044L9.28899 7.96416C9.27821 7.83489 9.17048 7.73793 9.04121 7.73793H8.95503C8.90116 7.49015 8.83652 7.28547 8.77189 7.10233H8.8042C8.93348 7.02692 8.98734 6.88687 8.93348 6.7576V6.73605L10.0431 6.10045L9.29976 10.1618ZM11.2281 15.3113C11.2281 15.3113 11.1527 15.3005 11.1204 15.2682C11.1635 15.3005 11.2281 15.3113 11.2927 15.3005C11.2712 15.3005 11.2497 15.3113 11.2281 15.3113ZM14.2122 9.24614C14.0075 9.31077 13.7921 9.37541 13.5874 9.47237L13.5658 9.44005C13.5227 9.35387 13.4366 9.31077 13.3396 9.31077H13.2857L15.9682 7.78102L15.7096 9.12763C15.6019 9.11686 15.4726 9.10609 15.3541 9.10609C15.2572 9.10609 15.171 9.11686 15.074 9.11686V9.08454C15.0417 8.95527 14.9448 8.86908 14.8263 8.86908H14.7832L14.4169 8.91218C14.2876 8.93372 14.1907 9.05222 14.2014 9.19227V9.24614H14.2122ZM15.548 6.90842L10.334 9.89251L11.2389 4.95852L15.548 6.90842ZM12.0361 16.6148C12.0361 16.6148 12.0253 16.604 12.0145 16.604C12.0684 16.6148 12.1115 16.604 12.1546 16.5717C12.1223 16.5933 12.0792 16.6148 12.0361 16.6148ZM18.446 14.1694C18.1228 15.6021 16.8192 16.6363 15.3541 16.6363C15.1171 16.6363 14.8801 16.6148 14.6539 16.5609C13.8244 16.3778 13.1241 15.8822 12.6717 15.1712C12.2084 14.4602 12.0576 13.6092 12.2515 12.7904C12.5639 11.3576 13.8675 10.3127 15.3434 10.3127C15.3972 10.3127 15.4403 10.3127 15.4942 10.3234L14.934 13.3398C14.8801 13.5984 15.0525 13.8569 15.3218 13.9C15.3434 13.9108 15.3757 13.9108 15.408 13.9108C15.645 13.9108 15.8497 13.7492 15.882 13.5122L16.4422 10.5173C17.9289 11.0668 18.7907 12.6288 18.446 14.1694Z" fill="#5a3c01"></path></svg>