<svg width="20" height="20" viewBox="0 0 20 20" fill="none" xmlns="http://www.w3.org/2000/svg"><mask id="Mask-Note20b889420a047f42dbd0b38a4652878af5" maskUnits="userSpaceOnUse" x="0" y="0" width="20" height="20" style="mask-type: alpha;"><rect width="20" height="20" fill="#414e6c"></rect></mask><g mask="url(#Mask-Note20b889420a047f42dbd0b38a4652878af5)"><path d="M7.749 14.7915H12.244C12.3975 14.7915 12.5271 14.74 12.6328 14.6371C12.7386 14.5344 12.7915 14.4067 12.7915 14.2542C12.7915 14.1017 12.7398 13.9726 12.6363 13.8669C12.5327 13.7611 12.4041 13.7082 12.2507 13.7082H7.75567C7.6022 13.7082 7.47262 13.7596 7.36692 13.8625C7.26109 13.9653 7.20817 14.093 7.20817 14.2455C7.20817 14.398 7.25991 14.5271 7.36338 14.6328C7.46699 14.7386 7.59553 14.7915 7.749 14.7915ZM7.749 11.7915H12.244C12.3975 11.7915 12.5271 11.74 12.6328 11.6371C12.7386 11.5344 12.7915 11.4067 12.7915 11.2542C12.7915 11.1017 12.7398 10.9726 12.6363 10.8669C12.5327 10.7611 12.4041 10.7082 12.2507 10.7082H7.75567C7.6022 10.7082 7.47262 10.7596 7.36692 10.8625C7.26109 10.9653 7.20817 11.093 7.20817 11.2455C7.20817 11.398 7.25991 11.5271 7.36338 11.6328C7.46699 11.7386 7.59553 11.7915 7.749 11.7915ZM5.75046 17.5832C5.37505 17.5832 5.05887 17.4537 4.80192 17.1946C4.54498 16.9356 4.4165 16.6185 4.4165 16.2434V3.7563C4.4165 3.38116 4.54602 3.06407 4.80505 2.80505C5.06407 2.54602 5.38116 2.4165 5.7563 2.4165H11.6473C11.8234 2.4165 11.993 2.44859 12.1561 2.51275C12.319 2.57678 12.4689 2.6772 12.6057 2.814L15.1857 5.394C15.3225 5.53081 15.4229 5.68067 15.4869 5.84359C15.5511 6.00664 15.5832 6.17623 15.5832 6.35234V16.2434C15.5832 16.6185 15.4536 16.9356 15.1944 17.1946C14.9353 17.4537 14.618 17.5832 14.2425 17.5832H5.75046ZM11.4165 5.91317V3.49984H5.7563C5.69213 3.49984 5.63338 3.52657 5.58005 3.58005C5.52657 3.63338 5.49984 3.69213 5.49984 3.7563V16.2434C5.49984 16.3075 5.52657 16.3663 5.58005 16.4196C5.63338 16.4731 5.69213 16.4998 5.7563 16.4998H14.2434C14.3075 16.4998 14.3663 16.4731 14.4196 16.4196C14.4731 16.3663 14.4998 16.3075 14.4998 16.2434V6.58317H12.0865C11.8953 6.58317 11.7358 6.51928 11.6082 6.3915C11.4804 6.26386 11.4165 6.10442 11.4165 5.91317Z" fill="#414e6c"></path></g></svg>