<svg width="20" height="20" viewBox="0 0 20 20" fill="none" xmlns="http://www.w3.org/2000/svg"><path d="M15.9494 2.11293C15.8722 1.93817 15.7276 1.8002 15.5444 1.72662L13.8666 1.06438C13.7702 1.02759 13.6738 1 13.5677 1C13.4327 1 13.2977 1.03679 13.1916 1.11037C13.0663 1.17476 12.9699 1.27593 12.9217 1.4047L11.8224 3.84211C11.7067 4.11804 10.9353 6.97854 11.051 7.62238V7.64997C11.051 7.64997 11.0703 7.68677 11.0703 7.69596C11.0896 7.78794 11.1474 7.87992 11.2342 7.9443L10.916 8.66173L10 10.722L9.08397 8.66173L8.76577 7.9443C8.85255 7.87992 8.91041 7.78794 8.92969 7.69596C8.92969 7.68677 8.93933 7.66837 8.93933 7.64997V7.62238C9.06468 6.97854 8.29329 4.11804 8.17758 3.84211L7.07834 1.4047C7.03013 1.27593 6.93371 1.17476 6.80836 1.11037C6.70229 1.03679 6.5673 1 6.4323 1C6.32624 1 6.22981 1.02759 6.13339 1.06438L4.4556 1.72662C4.2724 1.8002 4.12776 1.93817 4.05062 2.11293C3.98313 2.27849 3.98313 2.45324 4.05062 2.60961L5.14986 5.04701C5.20771 5.19417 5.67055 5.9024 6.17196 6.62902C6.67336 7.34645 7.23262 8.07307 7.51225 8.23863C7.58939 8.28462 7.68582 8.31221 7.7726 8.31221H7.8401L9.45038 11.9545L8.92005 13.1594L7.05906 17.372L6.63479 18.3378C6.57694 18.4573 6.57694 18.5861 6.62515 18.7057C6.68301 18.8252 6.77943 18.9172 6.89514 18.9632C6.96264 18.9908 7.03013 19 7.09763 19C7.29048 19 7.47368 18.8896 7.55082 18.7057L7.98473 17.7399L10 13.1962V13.187L12.0153 17.7399L12.4492 18.7057C12.5263 18.8896 12.7095 19 12.9024 19C12.9699 19 13.0374 19 13.1049 18.9632C13.2206 18.9172 13.317 18.8252 13.3748 18.7057C13.4231 18.5861 13.4231 18.4573 13.3652 18.3378L12.9409 17.372L11.08 13.1594L10.5496 11.9637L12.1599 8.31221H12.2274C12.3142 8.31221 12.4106 8.28462 12.4877 8.23863C12.7674 8.07307 13.3266 7.34645 13.828 6.62902C14.3294 5.9024 14.7923 5.19417 14.8501 5.04701L15.9494 2.60961C16.0169 2.45324 16.0169 2.27849 15.9494 2.11293ZM6.34552 5.58048C6.09482 5.20337 5.89233 4.89065 5.83447 4.77108L4.87023 2.628C4.85094 2.56362 4.85094 2.49923 4.87023 2.43485C4.89916 2.37966 4.94737 2.33367 5.00522 2.30608H5.01487L5.05344 2.28769C5.39092 2.15892 5.87304 1.96576 6.1816 1.84619C6.22017 1.8278 6.2491 1.8186 6.28767 1.8186C6.38409 1.8186 6.48051 1.88298 6.51908 1.97496L7.48333 4.11804C7.51225 4.19162 7.61832 4.53194 7.73403 5.01022C7.59904 4.92744 7.43511 4.89065 7.26155 4.89065C7.04942 4.89065 6.83728 4.95503 6.67336 5.0838C6.4998 5.21257 6.38409 5.38733 6.34552 5.58048ZM7.63761 7.43843L7.07834 5.83802C7.05906 5.76444 7.07834 5.70925 7.09763 5.68166C7.1362 5.63567 7.2037 5.59888 7.26155 5.59888C7.30012 5.59888 7.32905 5.59888 7.35798 5.62647C7.3869 5.64486 7.40619 5.67246 7.42547 5.70005L8.25472 7.19928L7.63761 7.43843ZM12.9217 5.83802L12.3624 7.43843L11.7453 7.19928L12.5745 5.70005C12.5745 5.70005 12.6131 5.64486 12.642 5.62647C12.671 5.60807 12.6999 5.59888 12.7384 5.59888C12.7963 5.59888 12.8638 5.63567 12.9024 5.68166C12.9217 5.70925 12.9409 5.76444 12.9217 5.83802ZM15.1298 2.628L14.1655 4.77108C14.1077 4.89065 13.9052 5.20337 13.6545 5.58048C13.6159 5.38733 13.5002 5.21257 13.3266 5.0838C13.1627 4.95503 12.9506 4.89065 12.7384 4.89065C12.5649 4.89065 12.401 4.92744 12.266 5.01022C12.3817 4.53194 12.4877 4.19162 12.5167 4.11804L13.4809 1.97496C13.5195 1.88298 13.6159 1.8186 13.7123 1.8186C13.7509 1.8186 13.7798 1.8278 13.8184 1.84619C14.127 1.96576 14.6091 2.15892 14.9466 2.28769L14.9851 2.30608H14.9948C15.0526 2.33367 15.1008 2.37966 15.1298 2.43485C15.1491 2.49923 15.1491 2.56362 15.1298 2.628Z" fill="#00a6c1"></path></svg>