<svg width="20" height="20" viewBox="0 0 20 20" fill="none" xmlns="http://www.w3.org/2000/svg"><path d="M19.7481 15.3867C19.465 14.9865 18.894 14.6985 18.1814 14.3568C17.9764 14.2592 17.8006 14.1714 17.6835 14.103C16.4633 13.3416 15.9361 12.6778 15.0673 11.5747C14.7843 11.2135 14.4621 10.8133 14.0814 10.3643C12.6171 8.62666 11.4262 4.57551 11.309 3.9898C11.1431 3.08196 10.4207 2.96481 10.1669 2.92577C10.0693 2.90624 9.95216 2.90624 9.02478 2.94529C8.19503 2.97458 6.41838 3.04291 5.65696 2.9941C5.65696 2.94529 5.65696 2.89648 5.66672 2.83791C5.73505 1.83244 5.7741 1.23697 5.31529 1.00269C4.65149 0.670788 4.37816 1.15888 3.87055 2.07649C3.4215 2.87696 2.20128 3.96052 2.20128 3.96052L1.64485 4.5267C1.557 4.63408 1.43009 4.75123 1.29343 4.88789C0.658911 5.49312 -0.405127 6.50835 0.161058 7.99215C0.49296 8.87071 1.06891 9.34904 1.79128 9.94451C2.54294 10.5693 3.48984 11.3502 4.62221 12.9707C6.75028 15.9871 7.54099 16.3873 8.9955 17.0999L9.41525 17.3049C10.7526 17.9785 13.8959 19.1011 16.024 19.1011C16.3071 19.1011 16.5707 19.0816 16.8147 19.0425C17.5957 18.8961 19.919 18.4763 19.9873 16.2311C20.0263 16.0066 19.9824 15.7186 19.7481 15.3867ZM2.8602 4.78539C2.90901 4.73658 3.96816 3.79457 4.59292 2.88672C4.5734 3.17957 4.56363 3.34552 4.58316 3.46267C4.66125 4.0679 4.9053 4.14599 9.05407 3.9898C9.55192 3.97028 9.92287 3.96052 10.0205 3.96052C10.2157 3.9898 10.2352 3.9898 10.2645 4.17528C10.2938 4.35099 10.5086 5.17098 10.8698 6.2155L9.6593 6.72311C9.4543 6.81097 9.33716 7.0062 9.33716 7.2112C9.33716 7.27953 9.34692 7.34787 9.37621 7.4162C9.46406 7.6212 9.6593 7.73834 9.8643 7.73834C9.93263 7.73834 10.001 7.72858 10.0693 7.69929L11.231 7.2112C11.2895 7.36739 11.3579 7.53334 11.4262 7.69929L10.4988 8.08976C10.2255 8.20691 10.0986 8.50952 10.2157 8.78285C10.3036 8.98785 10.4988 9.10499 10.7038 9.10499C10.7721 9.10499 10.8405 9.09523 10.9088 9.06595L11.8557 8.67547C11.924 8.8219 11.9924 8.95857 12.0607 9.10499L11.3481 9.40761C11.0748 9.52475 10.9479 9.82737 11.065 10.1007C11.1529 10.3057 11.3481 10.4228 11.5531 10.4228C11.6214 10.4228 11.6898 10.4131 11.7581 10.3838L12.5781 10.0421C12.6757 10.1983 12.7733 10.3545 12.8709 10.5009L12.1095 10.8426C11.8459 10.9597 11.7288 11.2721 11.8459 11.5454C11.9338 11.7407 12.129 11.8578 12.3243 11.8578C12.3926 11.8578 12.4707 11.8383 12.539 11.809L13.525 11.36C13.7885 11.6821 14.0326 11.9847 14.2474 12.2483C15.1552 13.3904 15.7604 14.1518 17.1271 15.0109C17.2638 15.0987 17.4785 15.2061 17.7226 15.3233C18.074 15.499 18.7378 15.8114 18.8842 16.0164C18.8842 16.0164 18.9135 16.0652 18.9233 16.0749C18.8647 16.1433 18.5621 16.4068 17.2345 16.6606C15.8581 16.9242 11.9338 15.7821 10.3622 14.9426L9.97168 14.7376C8.77098 14.1128 8.16574 13.8004 6.37933 11.1452C5.12006 9.28071 4.22197 8.43143 3.4996 7.75786C3.05055 7.33811 2.68937 6.99644 2.37699 6.51811C2.03533 6.00074 2.23056 5.52241 2.46485 5.20027C2.6308 4.98551 2.80163 4.8342 2.8602 4.78539Z" fill="#45ae01"></path></svg>