<svg width="20" height="20" viewBox="0 0 20 20" fill="none" xmlns="http://www.w3.org/2000/svg"><path d="M19.2366 1.5023C19.1038 1.31834 18.9198 1.19571 18.7052 1.15483C18.6541 1.15483 18.603 1.14461 18.5519 1.14461C18.1533 1.14461 17.8161 1.43076 17.7446 1.82933L17.254 4.62954C17.2131 4.87481 17.2847 5.12008 17.4686 5.31426L15.5882 15.9734H15.4962C15.4962 15.9734 15.4349 15.953 15.4042 15.953C15.1692 15.953 14.9648 16.1267 14.9239 16.3618C14.8728 16.6377 15.0568 16.8932 15.3225 16.9341L15.5678 16.9852V17.1896C15.5678 17.394 15.5882 17.5881 15.5882 17.7721C15.5882 17.8743 15.6699 17.9561 15.7721 17.9561C15.8539 17.9561 15.9152 17.905 15.9459 17.8334C16.0072 17.6597 16.089 17.4757 16.1605 17.2816L16.2423 17.0976L16.4773 17.1385C16.4773 17.1385 16.5386 17.1487 16.5693 17.1487C16.8043 17.1487 17.0087 16.975 17.0496 16.7399C17.0803 16.6071 17.0496 16.4742 16.9679 16.372C16.8963 16.2596 16.7839 16.188 16.651 16.1676L16.5591 16.1472L18.4395 5.48799C18.6745 5.36536 18.8278 5.16096 18.8789 4.91569L19.3695 2.11548C19.4104 1.90087 19.3593 1.67603 19.2366 1.5023Z" fill="#d85b01"></path><path d="M14.2903 16.4435L14.1983 16.4231L16.0787 5.76392C16.3138 5.64129 16.4671 5.43689 16.5182 5.1814L17.0087 2.39142C17.0905 1.94175 16.7839 1.51252 16.3445 1.43076C16.2934 1.42054 16.2423 1.42054 16.1912 1.42054C15.7926 1.42054 15.4553 1.70669 15.3838 2.09504L14.8933 4.89525C14.8524 5.15074 14.9239 5.39601 15.1079 5.59019L13.2274 16.2494H13.1355C13.1355 16.2494 13.0741 16.2289 13.0435 16.2289C12.8084 16.2289 12.604 16.4027 12.5632 16.6377C12.5325 16.7706 12.5632 16.9034 12.6449 17.0056C12.7164 17.118 12.8289 17.1896 12.9617 17.21L13.207 17.2509V17.4655C13.2172 17.6699 13.2274 17.8641 13.2274 18.048C13.2274 18.1502 13.3092 18.2218 13.4114 18.2218C13.4931 18.2218 13.5545 18.1809 13.5851 18.1094C13.6464 17.9356 13.7282 17.7517 13.7997 17.5575L13.8815 17.3735L14.1166 17.4144C14.1166 17.4144 14.1779 17.4144 14.2085 17.4144C14.4436 17.4144 14.648 17.2407 14.6889 17.0056C14.7195 16.8728 14.6889 16.7399 14.6071 16.6377C14.5356 16.5253 14.4231 16.4538 14.2903 16.4333V16.4435Z" fill="#d85b01"></path><path d="M10.6827 15.8304H10.6725L10.6623 15.8099C10.1411 14.7164 9.3746 13.2856 8.63878 11.8958L8.43438 11.5074C8.30153 11.2621 8.16867 11.0066 8.03582 10.7614C7.90296 10.5161 7.7701 10.2606 7.63725 10.0153V9.99489L7.85186 9.56566C8.03582 9.22841 8.21977 8.88094 8.40373 8.54369L8.42416 8.50281C9.23152 6.98007 10.0695 5.40623 10.6623 4.20031C11.5923 2.25856 11.9398 1.53296 11.7047 0.909555C11.5616 0.480327 11.1937 0.286152 10.928 0.173735C10.6827 0.0613183 10.4681 0 10.2535 0C9.89581 0 9.56877 0.173735 9.2724 0.521206C8.92493 0.940215 8.57746 1.63516 7.94384 2.9535V2.98416C7.44307 3.99591 6.89121 5.24272 6.20648 6.82678H6.19627C5.60352 5.46755 4.99034 4.05723 4.46913 2.97394C3.87639 1.73735 3.49826 0.960654 3.13035 0.521206C2.8442 0.173735 2.51716 0 2.14925 0C1.8631 0 1.60761 0.112417 1.47475 0.173735C1.16816 0.316811 0.84113 0.510986 0.698054 0.909555C0.47322 1.54318 0.82069 2.26878 1.75069 4.20031C2.33321 5.40623 3.15079 6.93919 4.00924 8.54369C4.18298 8.88094 4.36693 9.21819 4.55089 9.55544L4.77572 9.98467V10.0358C4.64287 10.2606 4.51001 10.5161 4.37715 10.7614C4.23408 11.0066 4.10122 11.2621 3.97859 11.5074C3.02815 13.2754 2.28211 14.696 1.73025 15.8201C0.800251 17.7414 0.45278 18.467 0.687834 19.1007C0.83091 19.5095 1.17838 19.7036 1.46453 19.8365C1.58717 19.8876 1.85288 20 2.13903 20C2.49673 20 2.82376 19.8263 3.10991 19.4992C3.4676 19.07 3.82529 18.3342 4.40781 17.1283L4.43847 17.0669H4.44869C4.98012 15.953 5.60352 14.5222 6.20648 13.1426C6.76857 14.4507 7.41241 15.9223 7.95406 17.0465L8.0256 17.1896C8.5979 18.3648 8.93515 19.0802 9.29284 19.489C9.57899 19.8365 9.90602 20 10.2739 20C10.5601 20 10.8156 19.8876 10.9382 19.8365C11.2346 19.7036 11.5821 19.5095 11.7251 19.1007C11.95 18.4773 11.6127 17.7721 10.7134 15.8917L10.6827 15.8304ZM6.88099 7.75677C7.58615 6.12161 8.27087 4.558 8.83295 3.41339C9.64031 1.72713 10.0184 0.991313 10.2739 0.991313C10.3353 0.991313 10.4375 1.03219 10.5192 1.07307C10.7236 1.17527 10.7645 1.22637 10.7747 1.24681C10.8667 1.49208 10.3557 2.54471 9.76295 3.76086C9.19064 4.95657 8.35263 6.52018 7.54527 8.0327L7.52483 8.0838L7.0956 8.88094C6.97296 8.61523 6.86055 8.34951 6.74813 8.0838L6.88099 7.75677ZM5.4911 12.3045L5.38891 12.5396C4.71441 14.0726 4.08078 15.5135 3.54936 16.6173C2.73178 18.3137 2.37409 19.0087 2.1186 19.0087C2.05728 19.0087 1.98574 18.978 1.8631 18.9269C1.64849 18.835 1.61783 18.7634 1.61783 18.7634C1.52585 18.5181 2.00618 17.5268 2.61936 16.2698V16.2494C3.19167 15.0741 3.99902 13.5616 4.84726 11.9775C4.94946 11.7936 5.05166 11.5994 5.14363 11.4154L5.29693 11.1293L5.31737 11.0986L5.5422 11.63L5.66484 11.8958C5.5933 12.0491 5.53198 12.1819 5.4911 12.3045ZM10.7849 18.7634C10.7849 18.7634 10.7032 18.8554 10.5294 18.9269C10.417 18.978 10.3455 19.0087 10.2739 19.0087C10.0389 19.0087 9.71185 18.4159 8.84317 16.6173C8.27087 15.4011 7.54527 13.7557 6.92187 12.2943L6.81967 12.0797L6.70725 11.8344L6.59483 11.5585L6.53352 11.4052L6.43132 11.1804L6.33934 10.9658L6.28824 10.8329L6.2167 10.7001C6.11451 10.4548 5.99187 10.1891 5.85901 9.92335C5.82836 9.87225 5.7977 9.81094 5.77726 9.75984C5.7466 9.69852 5.71594 9.64742 5.6955 9.59632C5.68528 9.5861 5.68528 9.57588 5.67506 9.56566L5.65462 9.535L5.5933 9.41237L5.45023 9.15687L4.87792 8.07358L4.85748 8.0327L4.60199 7.5626C3.85595 6.15227 3.15079 4.82371 2.6398 3.77108C2.02662 2.49361 1.53607 1.49208 1.62805 1.23659C1.63827 1.22637 1.67915 1.17527 1.88354 1.07307C1.98574 1.03219 2.0675 0.991313 2.13903 0.991313C2.38431 0.991313 2.76244 1.72713 3.58002 3.40317C4.1421 4.558 4.8166 6.12161 5.52176 7.75677L5.68528 8.1349L5.80792 8.41083L5.87945 8.56413L5.97143 8.77874L6.06341 9.00358L6.12473 9.14665L6.2167 9.35105C6.29846 9.54522 6.41088 9.80072 6.55396 10.0562C6.61527 10.1891 6.67659 10.3117 6.73791 10.4343C6.74813 10.4548 6.75835 10.465 6.75835 10.4854L6.93209 10.8022L7.03428 10.9862L7.55549 11.9673L7.60659 12.0491L7.719 12.2739C8.50592 13.7557 9.25196 15.1559 9.78339 16.2494L9.83449 16.3618C10.4068 17.5473 10.8565 18.4875 10.7951 18.7532H10.7849V18.7634Z" fill="#d85b01"></path></svg>