<svg width="20" height="20" viewBox="0 0 20 20" fill="none" xmlns="http://www.w3.org/2000/svg"><path d="M19.0675 6.30902H17.8048V5.59022C17.8048 5.02684 17.3482 4.57031 16.7848 4.57031H15.5804C15.017 4.57031 14.5605 5.02684 14.5605 5.59022V9.47561H5.42982V5.59022C5.42982 5.02684 4.97329 4.57031 4.40991 4.57031H3.20544C2.64206 4.57031 2.18553 5.02684 2.18553 5.59022V6.30902H0.922778C0.407965 6.30902 0 6.7267 0 7.2318V12.7685C0 13.2833 0.417678 13.6912 0.922778 13.6912H2.18553V14.41C2.18553 14.9734 2.64206 15.43 3.20544 15.43H4.40991C4.97329 15.43 5.42982 14.9734 5.42982 14.41V10.5247H14.5702V14.41C14.5702 14.9734 15.0267 15.43 15.5901 15.43H16.7946C17.3579 15.43 17.8145 14.9734 17.8145 14.41V13.6912H19.0772C19.592 13.6912 20 13.2736 20 12.7685V7.2318C20 6.71699 19.5823 6.30902 19.0772 6.30902H19.0675ZM1.04905 12.6422V7.35807H2.18553V12.6422H1.04905ZM3.24429 14.3809L3.20544 5.61937L4.38077 5.58051L4.41962 14.3809H3.24429ZM16.7557 14.3809L15.6192 14.4198L15.5804 5.61937L16.7557 5.58051V14.3809ZM18.9412 12.6422H17.8048V7.35807H18.9412V12.6422Z" fill="#3b0a52"></path></svg>