<svg width="20" height="20" viewBox="0 0 20 20" fill="none" xmlns="http://www.w3.org/2000/svg"><path d="M1.14836 5.71545C1.62118 5.86635 2.36561 5.86635 3.26095 5.04143C3.39173 4.92071 3.52251 4.78993 3.66334 4.65916C4.11604 4.21652 4.78 3.62298 5.09186 3.62298C5.12204 3.62298 5.20252 3.62298 5.32323 3.76382C5.43389 3.88454 5.50431 4.28694 5.53449 4.41772L5.55461 4.52838C5.64515 4.96095 6.03749 5.51425 6.67127 5.71545C6.81211 5.75569 6.98312 5.79593 7.1642 5.79593C7.60684 5.79593 8.16014 5.62491 8.78385 5.04143C8.91463 4.92071 9.04541 4.78993 9.18625 4.65916C9.63895 4.21652 10.2928 3.62298 10.6148 3.62298C10.6449 3.62298 10.7254 3.62298 10.8461 3.76382C10.9568 3.88454 11.0272 4.28694 11.0574 4.41772L11.0775 4.52838C11.1681 4.96095 11.5604 5.51425 12.1942 5.71545C12.667 5.86635 13.4114 5.86635 14.3068 5.04143C14.4375 4.92071 14.5683 4.78993 14.7092 4.65916C15.1619 4.21652 15.7956 3.62298 16.1377 3.62298C16.1678 3.62298 16.2483 3.62298 16.369 3.76382C16.4797 3.88454 16.5501 4.28694 16.5803 4.41772C16.5803 4.41772 16.6004 4.51832 16.6004 4.52838C16.691 4.96095 17.0833 5.51425 17.7171 5.71545C18.1899 5.86635 18.9343 5.86635 19.8297 5.04143C20.0409 4.84023 20.061 4.50826 19.8598 4.28694C19.6586 4.07568 19.3267 4.05556 19.1053 4.25676C18.703 4.62898 18.3207 4.78994 18.0289 4.6994C17.7875 4.62898 17.6567 4.40766 17.6165 4.22658C17.5662 3.93484 17.4656 3.40166 17.1638 3.05963C16.8821 2.73771 16.5501 2.57675 16.1779 2.55663C15.3631 2.51639 14.6589 3.22058 13.9647 3.8946C13.8339 4.01532 13.7032 4.1461 13.5824 4.25676C13.18 4.62898 12.7978 4.78994 12.506 4.6994C12.2747 4.62898 12.1338 4.40766 12.0936 4.21652C12.0433 3.93484 11.9427 3.40166 11.6409 3.04957C11.3592 2.72765 11.0272 2.56669 10.655 2.54657C9.88039 2.50633 9.13595 3.21052 8.44182 3.88454C8.31104 4.00526 8.18026 4.13604 8.05954 4.2467C7.65714 4.61892 7.27486 4.77987 6.98312 4.68934C6.75175 4.61892 6.61091 4.3976 6.57067 4.20646C6.52037 3.92478 6.41977 3.3916 6.11797 3.03951C5.84635 2.73771 5.51437 2.57675 5.1321 2.55663C4.34742 2.51639 3.61304 3.22058 2.91891 3.8946C2.78813 4.01532 2.65735 4.1461 2.53663 4.25676C2.13423 4.62898 1.75196 4.78994 1.46022 4.6994C1.22884 4.62898 1.088 4.40766 1.06788 4.30706C1.00752 4.01532 0.715782 3.8443 0.434104 3.8946C0.152426 3.95496 -0.028653 4.2467 0.0317067 4.52838C0.122246 4.96095 0.514584 5.51425 1.14836 5.71545Z" fill="#00a6c1"></path><path d="M19.0953 10.0815C18.6929 10.4537 18.3106 10.6146 18.0189 10.5241C17.7774 10.4537 17.6467 10.2324 17.6064 10.0412C17.5561 9.75954 17.4555 9.22637 17.1537 8.88433C16.872 8.56241 16.5401 8.40145 16.1678 8.38133C15.3731 8.36121 14.6488 9.04529 13.9547 9.7193C13.8239 9.84002 13.6931 9.9708 13.5724 10.0815C13.17 10.4537 12.7877 10.6146 12.496 10.5241C12.2646 10.4537 12.1238 10.2324 12.0835 10.0412C12.0332 9.75954 11.9326 9.22637 11.6308 8.88433C11.3491 8.56241 11.0172 8.40145 10.6449 8.38133C9.84015 8.36121 9.12589 9.04529 8.43176 9.7193C8.30098 9.84002 8.1702 9.9708 8.04948 10.0815C7.64708 10.4537 7.2648 10.6146 6.97306 10.5241C6.74169 10.4537 6.60085 10.2324 6.56061 10.0412C6.51031 9.75954 6.40971 9.22637 6.10791 8.88433C5.82623 8.56241 5.49425 8.40145 5.12204 8.38133C4.30718 8.36121 3.60298 9.04529 2.90885 9.7193C2.77807 9.84002 2.64729 9.9708 2.52657 10.0815C2.12417 10.4537 1.7419 10.6146 1.45016 10.5241C1.21878 10.4537 1.07794 10.2324 1.05782 10.1318C0.997461 9.84002 0.705723 9.669 0.424044 9.7193C0.132306 9.77966 -0.0487728 10.0613 0.0115868 10.3531C0.102126 10.7857 0.494464 11.339 1.12824 11.5402C1.60106 11.6911 2.34549 11.6911 3.24083 10.8661C3.37161 10.7454 3.50239 10.6146 3.64322 10.4839C4.09592 10.0513 4.70958 9.44769 5.06168 9.44769C5.09186 9.44769 5.16228 9.43763 5.30311 9.58852C5.41377 9.70924 5.48419 10.1116 5.50431 10.2424L5.52443 10.3531C5.61497 10.7857 6.00731 11.339 6.64109 11.5402C7.1139 11.6911 7.85834 11.6911 8.75367 10.8661C8.88445 10.7454 9.01523 10.6146 9.15607 10.4839C9.60877 10.0412 10.2224 9.44769 10.5745 9.44769C10.6047 9.44769 10.6751 9.43763 10.816 9.58852C10.9266 9.70924 10.997 10.1116 11.0272 10.2424L11.0473 10.3531C11.1379 10.7857 11.5302 11.339 12.164 11.5402C12.3048 11.5804 12.4759 11.6206 12.6569 11.6206C13.0996 11.6206 13.6529 11.4496 14.2766 10.8661C14.4074 10.7454 14.5381 10.6146 14.679 10.4839C15.1317 10.0412 15.7453 9.44769 16.0974 9.44769C16.1276 9.44769 16.198 9.43763 16.3389 9.58852C16.4495 9.70924 16.5199 10.1116 16.5501 10.2424L16.5702 10.3531C16.6608 10.7857 17.0531 11.339 17.6869 11.5402C18.1597 11.6911 18.9042 11.6911 19.7995 10.8661C20.0107 10.6649 20.0309 10.333 19.8297 10.1116C19.6285 9.90038 19.2965 9.88026 19.0752 10.0815H19.0953Z" fill="#00a6c1"></path><path d="M19.0953 15.9162C18.6929 16.2884 18.3106 16.4494 18.0189 16.3589C17.7774 16.2884 17.6467 16.0671 17.6064 15.876C17.5561 15.5943 17.4555 15.0611 17.1537 14.7191C16.872 14.3972 16.5401 14.2362 16.1678 14.2161C15.3731 14.206 14.6488 14.8801 13.9547 15.5541C13.8239 15.6748 13.7032 15.8056 13.5724 15.9162C13.17 16.2884 12.7877 16.4494 12.496 16.3589C12.2545 16.2884 12.1238 16.0671 12.0835 15.876C12.0332 15.5943 11.9326 15.0611 11.6308 14.7191C11.3491 14.3972 11.0172 14.2362 10.6449 14.2161C9.84015 14.206 9.12589 14.8801 8.43176 15.5541C8.30098 15.6748 8.18026 15.8056 8.04948 15.9162C7.64708 16.2884 7.2648 16.4494 6.97306 16.3589C6.73163 16.2884 6.60085 16.0671 6.56061 15.876C6.51031 15.5943 6.40971 15.0611 6.10791 14.7191C5.82623 14.3972 5.49425 14.2362 5.12204 14.2161C4.30718 14.1658 3.60298 14.8801 2.90885 15.5541C2.77807 15.6748 2.65735 15.8056 2.52657 15.9162C2.12417 16.2884 1.7419 16.4494 1.45016 16.3589C1.20872 16.2884 1.07794 16.0671 1.05782 15.9665C0.997461 15.6748 0.705723 15.5038 0.424044 15.5541C0.132306 15.6144 -0.0487728 15.8961 0.0115868 16.1878C0.102126 16.6204 0.494464 17.1737 1.12824 17.3749C1.60106 17.5258 2.34549 17.5258 3.24083 16.7009C3.37161 16.5802 3.50239 16.4494 3.64322 16.3186C4.09592 15.876 4.69952 15.2824 5.07174 15.2824C5.10192 15.2824 5.18239 15.2824 5.30311 15.4233C5.41377 15.544 5.48419 15.9464 5.50431 16.0772L5.52443 16.1878C5.61497 16.6204 6.00731 17.1737 6.64109 17.3749C7.1139 17.5258 7.85834 17.5258 8.75367 16.7009C8.88445 16.5802 9.01523 16.4494 9.15607 16.3186C9.60877 15.876 10.1922 15.2824 10.5846 15.2824C10.6148 15.2824 10.6952 15.2824 10.816 15.4233C10.9266 15.544 10.997 15.9464 11.0172 16.0772L11.0373 16.1878C11.1278 16.6204 11.5202 17.1737 12.1539 17.3749C12.2948 17.4152 12.4658 17.4554 12.6469 17.4554C13.0895 17.4554 13.6428 17.2844 14.2665 16.7009C14.3973 16.5802 14.5281 16.4494 14.6689 16.3186C15.1317 15.876 15.7755 15.2824 16.0974 15.2824C16.1276 15.2824 16.2081 15.2824 16.3288 15.4233C16.4395 15.544 16.5099 15.9464 16.53 16.0772L16.5501 16.1878C16.6407 16.6204 17.033 17.1737 17.6668 17.3749C18.1396 17.5258 18.884 17.5258 19.7794 16.7009C19.9906 16.4997 20.0107 16.1677 19.8095 15.9464C19.6083 15.7351 19.2764 15.715 19.055 15.9162H19.0953Z" fill="#00a6c1"></path></svg>