<svg width="20" height="20" viewBox="0 0 20 20" fill="none" xmlns="http://www.w3.org/2000/svg"><mask id="Mask-Upload20e9a84e857afe915e16a7a6a02e70b8fd" maskUnits="userSpaceOnUse" x="0" y="0" width="20" height="20" style="mask-type: alpha;"><rect width="20" height="20" fill="#414e6c"></rect></mask><g mask="url(#Mask-Upload20e9a84e857afe915e16a7a6a02e70b8fd)"><path d="M5.75058 15.5831C5.37517 15.5831 5.05899 15.4536 4.80204 15.1946C4.5451 14.9356 4.41663 14.6185 4.41663 14.2433V13.5254C4.41663 13.3717 4.46808 13.243 4.571 13.1394C4.67378 13.0356 4.80142 12.9838 4.95392 12.9838C5.10642 12.9838 5.23551 13.0356 5.34121 13.1394C5.44704 13.243 5.49996 13.3717 5.49996 13.5254V14.2433C5.49996 14.3075 5.5267 14.3663 5.58017 14.4196C5.6335 14.4731 5.69225 14.4998 5.75642 14.4998H14.2435C14.3077 14.4998 14.3664 14.4731 14.4198 14.4196C14.4732 14.3663 14.5 14.3075 14.5 14.2433V13.5254C14.5 13.3717 14.5513 13.243 14.6541 13.1394C14.757 13.0356 14.8848 12.9838 15.0373 12.9838C15.1898 12.9838 15.3188 13.0356 15.4245 13.1394C15.5304 13.243 15.5833 13.3717 15.5833 13.5254V14.2433C15.5833 14.6185 15.4537 14.9356 15.1945 15.1946C14.9354 15.4536 14.6181 15.5831 14.2427 15.5831H5.75058ZM9.45829 5.49021L7.75163 7.19688C7.64149 7.30688 7.51517 7.36459 7.37267 7.37001C7.23003 7.37528 7.09767 7.32022 6.97558 7.2048C6.86156 7.08952 6.80586 6.96056 6.8085 6.81792C6.81114 6.67528 6.87017 6.54626 6.98558 6.43084L9.53517 3.88126C9.60489 3.81709 9.67815 3.76903 9.75496 3.73709C9.83176 3.70501 9.91482 3.68896 10.0041 3.68896C10.0934 3.68896 10.1765 3.70501 10.2533 3.73709C10.3301 3.76903 10.4006 3.81709 10.4648 3.88126L13.0143 6.43084C13.1243 6.54084 13.182 6.66508 13.1875 6.80355C13.1927 6.94188 13.1384 7.06869 13.0243 7.18397C12.9023 7.29938 12.7713 7.35577 12.6314 7.35313C12.4914 7.35049 12.3637 7.29147 12.2483 7.17605L10.5416 5.49021V12.2819C10.5416 12.4356 10.4902 12.5643 10.3873 12.6679C10.2845 12.7717 10.1568 12.8235 10.0043 12.8235C9.85183 12.8235 9.72274 12.7717 9.61704 12.6679C9.51121 12.5643 9.45829 12.4356 9.45829 12.2819V5.49021Z" fill="#414e6c"></path></g></svg>