<svg width="20" height="20" viewBox="0 0 20 20" fill="none" xmlns="http://www.w3.org/2000/svg"><path d="M19.8406 10.1978C19.7818 9.96243 19.5759 9.54079 18.9189 9.37409C18.7718 9.33487 18.5561 9.32507 18.0952 9.28584C16.7617 9.18779 13.9769 8.98187 11.5255 7.93268C9.55459 7.0894 6.88748 5.39304 6.50507 5.07926C5.82848 4.53015 5.24015 4.88315 5.03423 5.02043C4.94598 5.06946 4.86754 5.1381 4.24979 5.71662C3.71049 6.21671 2.57304 7.2561 2.01413 7.69735C1.99452 7.67773 1.98471 7.65812 1.9651 7.62871C1.40618 6.88348 1.06299 6.43243 0.592322 6.5501C-0.113677 6.7266 -0.00581579 7.2659 0.18049 8.19743C0.317767 8.8642 0.190295 10.0801 0.141267 10.4527L0.0824341 10.992C0.0824341 10.992 -0.299982 13.0218 0.582517 13.9631C1.30813 14.7279 2.29849 14.6593 3.5536 14.5906C4.47532 14.5318 5.61276 14.4632 7.06398 14.6691C8.97606 14.9338 11.0254 15.228 12.9277 15.2182C14.7123 15.2182 16.3694 14.9633 17.6834 14.2082C20.2034 12.757 20.174 11.3548 19.8406 10.1978ZM1.17085 10.6341C1.17085 10.5753 1.35715 9.45254 1.28852 8.49159C1.38657 8.61907 1.46502 8.71712 1.51404 8.75634C1.9651 9.16818 2.25926 8.98187 4.9656 6.49126C5.28918 6.18729 5.53432 5.96176 5.60296 5.91274C5.74023 5.83429 5.74023 5.83429 5.83829 5.91274C6.01479 6.05982 6.62273 6.46185 7.40718 6.94232L6.89729 7.95229C6.85807 8.03073 6.83845 8.10918 6.83845 8.18762C6.83845 8.38373 6.94632 8.57004 7.13262 8.65829C7.21107 8.69751 7.28951 8.71712 7.36795 8.71712C7.56406 8.71712 7.75037 8.60926 7.83862 8.42296L8.30929 7.48162C8.39754 7.53065 8.48579 7.57968 8.57404 7.63851L8.12298 8.53082C7.99551 8.79557 8.09356 9.10934 8.35831 9.24662C8.43676 9.28584 8.5152 9.30545 8.59365 9.30545C8.78976 9.30545 8.97606 9.19759 9.06431 9.01129L9.49576 8.1484C9.61342 8.20723 9.73109 8.26607 9.84876 8.33471L9.48595 9.06032C9.35848 9.32507 9.45654 9.63884 9.72128 9.77612C9.79973 9.81534 9.87817 9.83495 9.95662 9.83495C10.1527 9.83495 10.339 9.72709 10.4273 9.54079L10.7999 8.79557C10.8881 8.83479 10.9862 8.88382 11.0745 8.92304C11.0941 8.92304 11.1137 8.94265 11.1333 8.94265L10.8293 9.58982C10.7018 9.85456 10.8195 10.1683 11.0843 10.2958C11.1627 10.335 11.2313 10.3448 11.3098 10.3448C11.5059 10.3448 11.702 10.237 11.7903 10.0409L12.1334 9.31526C14.4279 10.0899 16.7715 10.2566 17.9874 10.3448C18.3109 10.3645 18.5365 10.3841 18.6345 10.4037C18.7424 10.4331 18.7816 10.4625 18.7816 10.4625C18.7816 10.4919 18.7816 10.8547 17.8991 11.6686C17.046 12.453 13.3984 13.3159 7.23068 12.2765C6.45604 12.1491 5.59315 12.1196 4.74987 12.1196C4.41649 12.1196 4.0831 12.1196 3.76932 12.1196C2.95546 12.1196 2.12199 12.1393 1.7984 12.051C0.935517 11.7961 1.14143 10.791 1.17085 10.6341Z" fill="#45ae01"></path></svg>